<svg width="64" height="64" viewBox="0 0 64 64" fill="none" xmlns="http://www.w3.org/2000/svg">
<circle cx="31.0369" cy="34.7058" r="29.2942" fill="url(#paint0_linear)"/>
<g clip-path="url(#clip0)">
<path d="M24.6315 27.2194L25.17 26.8154C26.1292 26.0959 26.3237 24.7351 25.6043 23.7757C24.8848 22.8161 23.5235 22.6216 22.5641 23.3414L22.0262 23.7448C21.558 24.0958 20.9244 24.1301 20.4209 23.8318C19.9174 23.5335 19.6432 22.9613 19.7255 22.382L19.8206 21.7159C19.99 20.529 19.1652 19.4294 17.9784 19.2598C16.7912 19.0902 15.6914 19.9151 15.5219 21.1023L15.427 21.7674C15.3447 22.3473 14.921 22.8202 14.3539 22.9655C13.7867 23.1111 13.1878 22.9005 12.8366 22.4318L12.4334 21.894C11.7139 20.9343 10.3526 20.7397 9.39311 21.4595C8.43422 22.1789 8.23975 23.5393 8.95868 24.4985L9.36275 25.0377C9.71363 25.5063 9.7479 26.1397 9.44967 26.6433C9.15144 27.1469 8.57937 27.4212 8.00022 27.3389L7.33523 27.2439C6.14807 27.0744 5.04824 27.8993 4.87858 29.0864C4.70887 30.2738 5.53399 31.3739 6.72142 31.5434L7.38645 31.6384C7.96595 31.7211 8.43873 32.1448 8.58396 32.7121C8.72919 33.2793 8.51859 33.8784 8.05005 34.2297L7.51187 34.6335C6.55282 35.3532 6.35854 36.7139 7.07788 37.6732C7.79743 38.6327 9.15864 38.8272 10.1181 38.1076L10.6553 37.7047C11.1235 37.3533 11.7574 37.3187 12.2613 37.617C12.7648 37.9153 13.0394 38.4879 12.9567 39.0675L12.8612 39.7308C12.6901 40.9185 13.5149 42.0196 14.7028 42.1895C15.8889 42.3591 16.9882 41.5356 17.159 40.3496L17.2552 39.6807C17.3379 39.1011 17.7616 38.6285 18.3287 38.4833C18.8958 38.3376 19.4948 38.5486 19.8457 39.0169L20.2495 39.5553C20.969 40.5144 22.3299 40.7087 23.289 39.9891C24.2482 39.2695 24.4424 37.9086 23.7227 36.9495L23.3188 36.4111C22.9675 35.9428 22.9329 35.3087 23.2311 34.8047C23.5294 34.3011 24.1018 34.0265 24.6813 34.1095L25.346 34.2045C26.5333 34.3742 27.6333 33.5493 27.803 32.362C27.9727 31.1747 27.1477 30.0747 25.9604 29.905L25.2958 29.8101C24.7166 29.727 24.2442 29.3036 24.0986 28.7363C23.9534 28.1694 24.1636 27.5707 24.6315 27.2194ZM16.3411 35.7908C13.5433 35.7908 11.2754 33.5225 11.2754 30.724C11.2754 27.9259 13.5433 25.6572 16.3411 25.6572C19.139 25.6572 21.4068 27.9259 21.4068 30.724C21.4068 33.5225 19.139 35.7908 16.3411 35.7908Z" fill="#3FC0AD"/>
<path d="M27.418 51.9509C27.418 53.5112 28.6822 54.7762 30.2426 54.7762H34.0088C35.5687 54.7762 36.8334 53.5112 36.8334 51.9509V46.3004H27.418V51.9509Z" fill="#E2DFEF"/>
<path d="M49.0719 21.8148C49.0709 13.6871 43.3026 6.70355 35.3229 5.16952C27.3433 3.63549 19.3976 7.98191 16.3845 15.5302C13.3714 23.0785 16.1381 31.7037 22.9794 36.0887C24.5471 37.0608 25.5103 38.7664 25.5333 40.6113V44.4169C25.5333 45.9772 26.7976 47.2422 28.3579 47.2422H35.8903C37.4501 47.2422 38.7149 45.9772 38.7149 44.4169V40.6894C38.7388 38.8009 39.7213 37.0544 41.323 36.0538C46.1567 32.9324 49.0751 27.5697 49.0719 21.8148Z" fill="url(#paint1_linear)"/>
<path d="M38.5436 27.5561C38.0193 27.0346 37.6179 26.3687 37.323 25.603C37.9128 24.6153 38.1668 23.2947 38.2815 22.0629C38.347 21.3083 38.3634 20.5537 38.3716 19.799C38.3798 19.0666 38.306 18.4563 37.8555 18.0013C37.4459 17.6017 36.9052 17.9569 36.5939 18.3564C36.2335 18.8114 36.0614 19.5549 35.9222 20.1653C35.6436 21.4082 35.6436 22.751 35.8238 24.0161C35.8812 24.46 35.9795 24.8928 36.0942 25.3145C35.8648 25.5586 35.6027 25.7473 35.3159 25.8804C34.4312 26.2688 33.7595 25.5697 33.3499 24.5487C33.2843 24.3823 33.2188 24.2047 33.1614 24.0161C33.2352 23.7608 33.3007 23.5056 33.358 23.2614C33.6611 22.0407 33.825 20.7756 33.8987 19.4994C33.9643 18.4452 33.9806 17.1801 33.2352 16.5475C32.9976 16.3477 32.7191 16.5031 32.5716 16.7805C31.4739 18.8447 31.5394 21.5746 32.1292 23.9162C31.9408 24.5376 31.7114 25.1369 31.4657 25.7251C31.1872 26.3687 30.6629 27.3564 30.0239 27.2343C29.4341 27.1122 28.9589 26.1135 28.664 25.4809C28.451 25.0259 28.279 24.5376 28.1479 24.0272C28.2216 23.7608 28.2954 23.4834 28.3609 23.217C28.6148 22.1406 28.7541 21.0087 28.8196 19.8767C28.877 18.9334 28.8934 17.6128 28.1397 17.1579C27.9185 17.0247 27.5908 17.0358 27.4762 17.3909C26.8126 19.3995 26.6815 21.6079 27.0993 23.7497C27.1157 23.8274 27.1321 23.894 27.1485 23.9606C26.6897 25.5475 25.9852 27.0235 25.1332 28.2775C24.7482 28.8434 25.3544 29.6646 25.7558 29.1209C26.5177 28.0666 27.1485 26.8792 27.64 25.5808C27.7875 25.9581 27.9513 26.3132 28.1315 26.6572C28.6312 27.5894 29.2538 28.4661 30.1468 28.5216C30.9823 28.5882 31.6623 27.6338 32.1129 26.8015C32.3258 26.402 32.5225 25.9692 32.6863 25.5253C33.0959 26.4131 33.6857 27.1122 34.4885 27.2565C35.2258 27.4008 35.9467 27.09 36.5529 26.5352C36.9052 27.3564 37.364 28.0888 37.9046 28.6992C38.4863 29.4094 39.1826 28.1887 38.5436 27.5561ZM32.9566 18.3897C32.9894 18.9112 32.8993 19.566 32.8829 19.8878C32.8419 20.4649 32.7682 21.053 32.6699 21.619C32.5634 20.4982 32.6371 19.344 32.9566 18.3897ZM36.7414 21.7078C36.7741 21.164 36.8806 20.6202 37.0117 20.1098C37.069 19.8767 37.151 19.6548 37.2493 19.4439C37.2575 19.4328 37.2902 19.3662 37.323 19.3108C37.3312 19.344 37.3394 19.3995 37.3394 19.4661C37.3885 20.7978 37.3066 22.2405 37.0035 23.5056C36.9625 23.6609 36.9216 23.8163 36.8724 23.9606C36.7495 23.2281 36.7004 22.4513 36.7414 21.7078Z" fill="white"/>
<path d="M39.4626 24.326C37.7422 31.4507 35.9236 38.542 33.9739 45.5668C33.7445 46.4102 34.6948 46.9207 34.9324 46.0772C36.8739 39.0414 38.6761 31.9501 40.2981 24.7699C40.462 24.0264 39.6428 23.5714 39.4626 24.326Z" fill="white"/>
<path d="M23.7822 23.872C25.1584 31.1409 26.4446 38.443 27.5833 45.7784C27.7225 46.6551 28.7302 46.3999 28.5909 45.5232C27.4358 38.1767 26.1415 30.8856 24.6587 23.65C24.5112 22.8954 23.6429 23.1174 23.7822 23.872Z" fill="white"/>
<path d="M54.9026 11.8516L55.6033 11.326C56.8513 10.3898 57.1042 8.61934 56.1683 7.37116C55.2322 6.12263 53.461 5.86957 52.2127 6.80599L51.5129 7.33093C50.9037 7.78755 50.0794 7.83215 49.4243 7.44405C48.7692 7.05594 48.4124 6.31146 48.5195 5.55778L48.6432 4.6911C48.8636 3.14686 47.7906 1.71628 46.2464 1.49562C44.7018 1.2749 43.2708 2.34824 43.0503 3.89285L42.9268 4.75812C42.8197 5.51272 42.2685 6.12798 41.5306 6.31698C40.7927 6.50643 40.0135 6.23237 39.5565 5.62262L39.0319 4.9229C38.0959 3.67421 36.3246 3.42109 35.0763 4.35762C33.8287 5.29359 33.5757 7.06353 34.5111 8.31157L35.0368 9.01302C35.4933 9.62277 35.5379 10.4468 35.1499 11.1021C34.7619 11.7574 34.0175 12.1142 33.264 12.007L32.3988 11.8835C30.8542 11.663 29.4233 12.7362 29.2025 14.2808C28.9817 15.8256 30.0553 17.257 31.6002 17.4775L32.4655 17.601C33.2194 17.7086 33.8346 18.26 34.0235 18.998C34.2125 19.736 33.9385 20.5155 33.3289 20.9726L32.6287 21.498C31.3809 22.4343 31.1281 24.2047 32.064 25.4528C33.0002 26.7012 34.7712 26.9543 36.0196 26.0179L36.7185 25.4937C37.3277 25.0366 38.1524 24.9916 38.808 25.3797C39.4632 25.7678 39.8204 26.5127 39.7128 27.2669L39.5885 28.1299C39.366 29.6751 40.4391 31.1078 41.9845 31.3288C43.5279 31.5495 44.9581 30.4781 45.1802 28.935L45.3055 28.0647C45.4131 27.3105 45.9643 26.6957 46.7022 26.5067C47.4401 26.3173 48.2193 26.5918 48.6759 27.2011L49.2013 27.9015C50.1375 29.1494 51.908 29.4021 53.1559 28.4659C54.4039 27.5297 54.6565 25.759 53.7202 24.5111L53.1946 23.8107C52.7376 23.2014 52.6926 22.3765 53.0806 21.7207C53.4686 21.0654 54.2134 20.7081 54.9674 20.8162L55.8322 20.9398C57.377 21.1606 58.8082 20.0873 59.0289 18.5426C59.2497 16.9978 58.1764 15.5666 56.6317 15.3458L55.7669 15.2223C55.0133 15.1142 54.3987 14.5633 54.2093 13.8253C54.0203 13.0877 54.2939 12.3087 54.9026 11.8516ZM44.1162 23.0037C40.476 23.0037 37.5254 20.0524 37.5254 16.4114C37.5254 12.7708 40.476 9.81912 44.1162 9.81912C47.7564 9.81912 50.707 12.7708 50.707 16.4114C50.707 20.0524 47.7564 23.0037 44.1162 23.0037Z" fill="#5084C1"/>
<path d="M27.418 49.1256H36.8334V51.0087H27.418V49.1256Z" fill="#B5ABDE"/>
<path d="M50.9518 34.9996H55.6595C56.1795 34.9996 56.6011 35.4208 56.6011 35.9412C56.6011 36.4611 56.1795 36.8827 55.6595 36.8827H50.9518C50.4318 36.8827 50.0103 36.4611 50.0103 35.9412C50.0103 35.4208 50.4318 34.9996 50.9518 34.9996Z" fill="url(#paint2_linear)"/>
<path d="M49.0718 40.6505C49.4047 40.2509 49.9982 40.1966 50.3977 40.5295L54.6006 44.0322C55.0001 44.3651 55.0544 44.9587 54.7215 45.3583C54.3882 45.7579 53.7947 45.8122 53.3952 45.4793L49.1923 41.9767C48.7927 41.6437 48.739 41.0501 49.0718 40.6505Z" fill="url(#paint3_linear)"/>
<path d="M45.3019 42.5336C45.8219 42.5336 46.2434 42.9548 46.2434 43.4753V48.1841C46.2434 48.7042 45.8219 49.1258 45.3019 49.1258C44.7819 49.1258 44.3604 48.7042 44.3604 48.1841V43.4753C44.3604 42.9548 44.7819 42.5336 45.3019 42.5336Z" fill="url(#paint4_linear)"/>
<path d="M5.50281 15.9626L11.2082 14.5374C11.713 14.4115 12.2237 14.7181 12.3497 15.2224C12.4757 15.7268 12.169 16.2375 11.6642 16.3635L5.95887 17.7887C5.45408 17.9147 4.94331 17.608 4.81734 17.1037C4.69137 16.5994 4.99802 16.0886 5.50281 15.9626Z" fill="url(#paint5_linear)"/>
<path d="M6.69972 5.80558C7.00177 5.38253 7.58978 5.28504 8.01274 5.58716L13.0708 9.20105C13.4942 9.50316 13.5921 10.0913 13.2901 10.5144C12.988 10.9374 12.4 11.0354 11.9771 10.7328L6.91902 7.11889C6.4956 6.81677 6.39768 6.22863 6.69972 5.80558Z" fill="url(#paint6_linear)"/>
<path d="M15.1334 0.153696C15.6373 0.0249404 16.1499 0.328895 16.2786 0.83288L17.7378 6.5418C17.8665 7.04578 17.5626 7.55897 17.0588 7.68772C16.5549 7.81648 16.0423 7.51206 15.9136 7.00854L14.4543 1.29962C14.3256 0.795633 14.6295 0.282451 15.1334 0.153696Z" fill="url(#paint7_linear)"/>
</g>
<defs>
<linearGradient id="paint0_linear" x1="31.0369" y1="5.41162" x2="31.0369" y2="64" gradientUnits="userSpaceOnUse">
<stop stop-color="#FDFEFE" stop-opacity="0.42"/>
<stop offset="1" stop-color="#F1F6FD"/>
</linearGradient>
<linearGradient id="paint1_linear" x1="46.9533" y1="42.3686" x2="13.7049" y2="20.6466" gradientUnits="userSpaceOnUse">
<stop stop-color="#FFC20A"/>
<stop offset="1" stop-color="#FFEFBE"/>
<stop offset="1" stop-color="#FFFAEC"/>
</linearGradient>
<linearGradient id="paint2_linear" x1="56.1891" y1="36.6662" x2="55.1835" y2="33.7914" gradientUnits="userSpaceOnUse">
<stop stop-color="#FFC20A"/>
<stop offset="1" stop-color="#FFEFBE"/>
<stop offset="1" stop-color="#FFFAEC"/>
</linearGradient>
<linearGradient id="paint3_linear" x1="54.5592" y1="45.078" x2="49.9598" y2="40.8329" gradientUnits="userSpaceOnUse">
<stop stop-color="#FFC20A"/>
<stop offset="1" stop-color="#FFEFBE"/>
<stop offset="1" stop-color="#FFFAEC"/>
</linearGradient>
<linearGradient id="paint4_linear" x1="46.1257" y1="48.3677" x2="43.6264" y2="47.7846" gradientUnits="userSpaceOnUse">
<stop stop-color="#FFC20A"/>
<stop offset="1" stop-color="#FFEFBE"/>
<stop offset="1" stop-color="#FFFAEC"/>
</linearGradient>
<linearGradient id="paint5_linear" x1="11.9037" y1="17.4366" x2="9.54952" y2="13.0252" gradientUnits="userSpaceOnUse">
<stop stop-color="#FFC20A"/>
<stop offset="1" stop-color="#FFEFBE"/>
<stop offset="1" stop-color="#FFFAEC"/>
</linearGradient>
<linearGradient id="paint6_linear" x1="13.0316" y1="10.2764" x2="8.32457" y2="5.42172" gradientUnits="userSpaceOnUse">
<stop stop-color="#FFC20A"/>
<stop offset="1" stop-color="#FFEFBE"/>
<stop offset="1" stop-color="#FFFAEC"/>
</linearGradient>
<linearGradient id="paint7_linear" x1="17.5584" y1="6.84404" x2="13.4161" y2="5.35462" gradientUnits="userSpaceOnUse">
<stop stop-color="#FFC20A"/>
<stop offset="1" stop-color="#FFEFBE"/>
<stop offset="1" stop-color="#FFFAEC"/>
</linearGradient>
<clipPath id="clip0">
<rect width="54.8571" height="54.8571" fill="white" transform="translate(4.57129)"/>
</clipPath>
</defs>
</svg>
