<svg width="64" height="64" viewBox="0 0 64 64" fill="none" xmlns="http://www.w3.org/2000/svg">
<ellipse cx="32.7645" cy="32.4693" rx="29.6292" ry="29.6292" fill="url(#paint0_linear)"/>
<path d="M3.20117 38.8682H41.1976V56.8948H3.20117V38.8682Z" fill="url(#paint1_linear)"/>
<path d="M13.0294 38.7469C13.0294 38.8139 12.975 38.8682 12.908 38.8682H6.6238C6.55677 38.8682 6.50244 38.8139 6.50244 38.7469V35.3671C6.50244 34.8148 6.95016 34.3671 7.50244 34.3671H12.0294C12.5817 34.3671 13.0294 34.8148 13.0294 35.3671V38.7469Z" fill="#FC7370"/>
<path d="M25.4625 38.7469C25.4625 38.8139 25.4082 38.8682 25.3411 38.8682H19.0569C18.9899 38.8682 18.9355 38.8139 18.9355 38.7469V35.3671C18.9355 34.8148 19.3833 34.3671 19.9355 34.3671H24.4625C25.0148 34.3671 25.4625 34.8148 25.4625 35.3671V38.7469Z" fill="#FC7370"/>
<path opacity="0.5" d="M3.20117 38.8682H7.33826V56.8948H3.20117V38.8682Z" fill="#FC7370"/>
<path d="M29.7588 28.9818V43.5568L60.2464 43.4461V28.9818H29.7588Z" fill="url(#paint2_linear)"/>
<path d="M57.5989 28.8856C57.5989 28.9388 57.5558 28.9819 57.5027 28.9819H52.4581C52.4049 28.9819 52.3618 28.9388 52.3618 28.8856V26.3702C52.3618 25.818 52.8095 25.3702 53.3618 25.3702H56.5989C57.1512 25.3702 57.5989 25.818 57.5989 26.3702V28.8856Z" fill="#FFC20A"/>
<path d="M47.6194 28.8856C47.6194 28.9388 47.5763 28.9819 47.5232 28.9819H42.4786C42.4254 28.9819 42.3823 28.9388 42.3823 28.8856V26.3702C42.3823 25.818 42.83 25.3702 43.3823 25.3702H46.6194C47.1717 25.3702 47.6194 25.818 47.6194 26.3702V28.8856Z" fill="#FFC20A"/>
<path d="M37.6453 28.8856C37.6453 28.9388 37.6022 28.9819 37.549 28.9819H32.5045C32.4513 28.9819 32.4082 28.9388 32.4082 28.8856V26.3702C32.4082 25.818 32.8559 25.3702 33.4082 25.3702H36.6453C37.1976 25.3702 37.6453 25.818 37.6453 26.3702V28.8856Z" fill="#FFC20A"/>
<path opacity="0.5" d="M29.7588 28.9818H33.0783V43.4948H29.7588V28.9818Z" fill="#FFC20A"/>
<path d="M3.09375 6.71167V23.4667L29.7604 23.3395V6.71167H3.09375Z" fill="url(#paint3_linear)"/>
<path d="M25.4938 6.60657C25.4938 6.6646 25.4467 6.71165 25.3887 6.71165H19.1988C19.1408 6.71165 19.0938 6.6646 19.0938 6.60657V3.76929C19.0938 3.217 19.5415 2.76929 20.0938 2.76929H24.4937C25.046 2.76929 25.4938 3.217 25.4938 3.76929V6.60657Z" fill="#5084C1"/>
<path d="M12.6949 6.60657C12.6949 6.6646 12.6479 6.71165 12.5898 6.71165H6.4C6.34197 6.71165 6.29492 6.6646 6.29492 6.60657V3.76929C6.29492 3.217 6.74264 2.76929 7.29492 2.76929H11.6949C12.2472 2.76929 12.6949 3.217 12.6949 3.76929V6.60657Z" fill="#5084C1"/>
<path opacity="0.5" d="M3.09375 6.71167H7.23084V23.4242H3.09375V6.71167Z" fill="#5084C1"/>
<defs>
<linearGradient id="paint0_linear" x1="32.7645" y1="2.84009" x2="32.7645" y2="62.0985" gradientUnits="userSpaceOnUse">
<stop stop-color="#FDFEFE" stop-opacity="0.42"/>
<stop offset="1" stop-color="#F1F6FD"/>
</linearGradient>
<linearGradient id="paint1_linear" x1="41.1976" y1="47.8815" x2="8.15139" y2="35.0914" gradientUnits="userSpaceOnUse">
<stop offset="0.0962187" stop-color="#FC7370"/>
<stop offset="1" stop-color="#FAC5C4"/>
</linearGradient>
<linearGradient id="paint2_linear" x1="58.341" y1="41.8806" x2="47.454" y2="23.2797" gradientUnits="userSpaceOnUse">
<stop stop-color="#FFC20A"/>
<stop offset="1" stop-color="#FFEFBE"/>
<stop offset="1" stop-color="#FFFAEC"/>
</linearGradient>
<linearGradient id="paint3_linear" x1="29.7604" y1="15.0892" x2="5.06044" y2="8.11946" gradientUnits="userSpaceOnUse">
<stop offset="0.0806838" stop-color="#568DCD"/>
<stop offset="1" stop-color="#A5CCF9"/>
</linearGradient>
</defs>
</svg>
