<svg width="64" height="64" viewBox="0 0 64 64" fill="none" xmlns="http://www.w3.org/2000/svg">
<circle cx="32.0001" cy="31.9999" r="29.102" transform="rotate(90 32.0001 31.9999)" fill="url(#paint0_linear)"/>
<path opacity="0.5" d="M15.1699 28.1089C15.1699 26.6362 16.3638 25.4423 17.8366 25.4423H34.5985C36.0712 25.4423 37.2652 26.6362 37.2652 28.1089V44.8708C37.2652 46.3436 36.0713 47.5375 34.5985 47.5375H17.8366C16.3638 47.5375 15.1699 46.3436 15.1699 44.8708V28.1089Z" fill="#3FC0AD"/>
<path opacity="0.5" d="M40.0586 34.3312C40.0586 32.8585 41.2525 31.6646 42.7253 31.6646H48.9199C50.3926 31.6646 51.5865 32.8585 51.5865 34.3312V40.5258C51.5865 41.9986 50.3926 43.1925 48.9199 43.1925H42.7253C41.2525 43.1925 40.0586 41.9986 40.0586 40.5258V34.3312Z" fill="#5084C1"/>
<path d="M34.0696 20.1919C34.0696 14.5685 29.6212 10.0101 24.1335 10.0101C18.6457 10.0101 14.1772 14.6045 14.1973 20.2279C14.2074 23.0216 15.3119 25.5478 17.0993 27.3793C18.4901 28.8045 19.5043 30.5692 20.0164 32.514L20.8197 35.5495H27.3317L28.0898 32.6735C28.612 30.6875 29.6664 28.8919 31.0973 27.4462C32.9299 25.6044 34.0696 23.037 34.0696 20.1919Z" fill="url(#paint1_linear)"/>
<path d="M25.6365 39.1096H22.4633C21.5646 39.1096 20.7914 38.4305 20.7412 37.5661L20.4751 34.2322L27.6649 34.1859L27.3586 37.5661C27.3084 38.4305 26.5352 39.1096 25.6365 39.1096Z" fill="#3B455A"/>
<path d="M27.0173 35.6373C25.009 35.7248 22.9907 35.6218 20.9823 35.7094C20.8016 35.7197 20.8167 35.9823 20.9924 35.9926C23.0007 36.0595 25.0191 35.9308 27.0274 35.9977C27.2583 36.008 27.2483 35.627 27.0173 35.6373Z" fill="#4F586B"/>
<path d="M27.0173 36.5324C25.009 36.62 22.9907 36.517 20.9823 36.6045C20.8016 36.6148 20.8167 36.8775 20.9924 36.8878C23.0007 36.9548 25.0191 36.826 27.0274 36.893C27.2583 36.9033 27.2483 36.5221 27.0173 36.5324Z" fill="#4F586B"/>
<path fill-rule="evenodd" clip-rule="evenodd" d="M24.9434 4.83473C24.9434 5.49328 24.602 7.84968 24.1852 7.84968C23.7635 7.84968 23.4271 5.49328 23.4271 4.83473C23.4271 4.17617 23.7635 3.64624 24.1852 3.64624C24.602 3.64624 24.9434 4.17617 24.9434 4.83473ZM34.4177 8.45644C33.9307 8.88347 32.4094 10.6842 32.6805 11.0135C32.9567 11.3376 34.9198 10.0668 35.4068 9.63979C35.8939 9.21275 36.0646 8.6005 35.7884 8.27636C35.5173 7.94708 34.9048 8.0294 34.4177 8.45644ZM35.099 18.5925C35.1492 19.0196 37.4738 19.0659 38.1114 18.9836C38.7441 18.9012 39.216 18.4896 39.1658 18.0625C39.1156 17.6354 38.5583 17.3576 37.9207 17.4399C37.288 17.5222 35.0437 18.1654 35.099 18.5925ZM14.8159 7.6747C15.318 8.08116 16.9246 9.80989 16.6636 10.1495C16.4025 10.489 14.3841 9.31082 13.877 8.90437C13.3749 8.49791 13.1741 7.89594 13.4352 7.55637C13.6963 7.21679 14.3138 7.26824 14.8159 7.6747ZM13.0185 16.9049C12.9683 17.3319 10.6437 17.3782 10.006 17.2959C9.36839 17.2136 8.89643 16.802 8.95166 16.3749C9.00187 15.9479 9.55918 15.6701 10.1968 15.7524C10.8294 15.8347 13.0738 16.4778 13.0185 16.9049Z" fill="url(#paint2_linear)"/>
<path d="M28.4218 25.3778C28.1005 25.136 27.8545 24.8273 27.6737 24.4723C28.0352 24.0144 28.1909 23.4022 28.2612 22.8311C28.3013 22.4812 28.3114 22.1314 28.3164 21.7815C28.3214 21.442 28.2762 21.159 28.0001 20.948C27.749 20.7628 27.4177 20.9275 27.2269 21.1127C27.006 21.3236 26.9005 21.6683 26.8152 21.9513C26.6445 22.5275 26.6445 23.1501 26.7549 23.7366C26.7901 23.9424 26.8503 24.143 26.9206 24.3385C26.78 24.4517 26.6194 24.5392 26.4436 24.6009C25.9014 24.781 25.4897 24.4569 25.2386 23.9835C25.1985 23.9064 25.1583 23.8241 25.1232 23.7366C25.1684 23.6183 25.2085 23.4999 25.2437 23.3867C25.4294 22.8208 25.5299 22.2343 25.575 21.6426C25.6152 21.1538 25.6252 20.5673 25.1684 20.2741C25.0228 20.1815 24.852 20.2535 24.7617 20.3821C24.0889 21.3391 24.1291 22.6047 24.4906 23.6903C24.3751 23.9784 24.2345 24.2562 24.0839 24.5289C23.9132 24.8273 23.5918 25.2852 23.2002 25.2286C22.8387 25.172 22.5475 24.709 22.3668 24.4157C22.2362 24.2048 22.1308 23.9784 22.0505 23.7417C22.0956 23.6183 22.1408 23.4896 22.181 23.3662C22.3366 22.8671 22.422 22.3423 22.4622 21.8175C22.4973 21.3802 22.5073 20.768 22.0454 20.557C21.9099 20.4953 21.709 20.5004 21.6388 20.6651C21.2321 21.5963 21.1517 22.6201 21.4078 23.6131C21.4178 23.6491 21.4279 23.68 21.4379 23.7109C21.1568 24.4466 20.725 25.1309 20.2028 25.7122C19.9668 25.9746 20.3384 26.3553 20.5844 26.1032C21.0513 25.6145 21.4379 25.064 21.7392 24.462C21.8295 24.6369 21.93 24.8016 22.0404 24.9611C22.3467 25.3932 22.7283 25.7997 23.2755 25.8254C23.7876 25.8563 24.2044 25.4138 24.4805 25.028C24.611 24.8427 24.7315 24.6421 24.832 24.4363C25.083 24.8479 25.4445 25.172 25.9365 25.2389C26.3884 25.3058 26.8302 25.1617 27.2018 24.9045C27.4177 25.2852 27.6988 25.6248 28.0302 25.9077C28.3867 26.237 28.8134 25.6711 28.4218 25.3778ZM24.9977 21.1281C25.0177 21.3699 24.9625 21.6735 24.9525 21.8227C24.9274 22.0902 24.8822 22.3629 24.8219 22.6253C24.7567 22.1057 24.8018 21.5706 24.9977 21.1281ZM27.3172 22.6664C27.3373 22.4143 27.4026 22.1622 27.4829 21.9256C27.5181 21.8175 27.5683 21.7146 27.6285 21.6169C27.6336 21.6117 27.6536 21.5809 27.6737 21.5551C27.6787 21.5706 27.6838 21.5963 27.6838 21.6272C27.7139 22.2446 27.6637 22.9134 27.4779 23.4999C27.4528 23.572 27.4277 23.644 27.3976 23.7109C27.3223 23.3713 27.2921 23.0112 27.3172 22.6664Z" fill="white"/>
<path d="M28.9857 23.8801C27.9314 27.1831 26.8168 30.4708 25.6218 33.7275C25.4812 34.1186 26.0636 34.3552 26.2092 33.9642C27.3992 30.7023 28.5037 27.4147 29.4978 24.0859C29.5983 23.7411 29.0962 23.5302 28.9857 23.8801Z" fill="white"/>
<path d="M19.3764 23.6699C20.2199 27.0398 21.0082 30.4252 21.7061 33.826C21.7914 34.2325 22.409 34.1141 22.3236 33.7077C21.6157 30.3017 20.8224 26.9215 19.9136 23.567C19.8233 23.2171 19.2911 23.32 19.3764 23.6699Z" fill="white"/>
<path fill-rule="evenodd" clip-rule="evenodd" d="M27.4872 34.331H10.7253V51.0929H27.4872V34.331ZM10.7253 31.6643C9.2525 31.6643 8.05859 32.8582 8.05859 34.331V51.0929C8.05859 52.5656 9.2525 53.7595 10.7253 53.7595H27.4872C28.9599 53.7595 30.1538 52.5656 30.1538 51.0929V34.331C30.1538 32.8582 28.9599 31.6643 27.4872 31.6643H10.7253Z" fill="#3FC0AD"/>
<path fill-rule="evenodd" clip-rule="evenodd" d="M52.4753 36.1087H46.2531C45.7622 36.1087 45.3642 36.5067 45.3642 36.9976V43.2198C45.3642 43.7107 45.7622 44.1087 46.2531 44.1087H52.4753C52.9662 44.1087 53.3642 43.7107 53.3642 43.2198V36.9976C53.3642 36.5067 52.9662 36.1087 52.4753 36.1087ZM46.2531 34.3309C44.7803 34.3309 43.5864 35.5248 43.5864 36.9976V43.2198C43.5864 44.6926 44.7803 45.8865 46.2531 45.8865H52.4753C53.9481 45.8865 55.142 44.6926 55.142 43.2198V36.9976C55.142 35.5248 53.9481 34.3309 52.4753 34.3309H46.2531Z" fill="#5084C1"/>
<path fill-rule="evenodd" clip-rule="evenodd" d="M52.0309 10.1278C52.0934 10.0561 52.1592 9.98614 52.2282 9.91819C53.7004 8.46879 56.0869 8.46819 57.5598 9.9164C57.5604 9.917 57.561 9.91759 57.5616 9.91819C57.5622 9.91879 57.5628 9.91939 57.5634 9.91998C59.0344 11.3701 59.0338 13.7197 57.5616 15.1691C57.4926 15.2371 57.4216 15.3018 57.3487 15.3634L52.0309 10.1278Z" fill="#FC7370"/>
<path d="M50.7944 11.3329L56.1278 16.5838L55.3073 17.3916L49.9739 12.1407L50.7944 11.3329Z" fill="#5084C1"/>
<path d="M50.6938 11.1227L56.0272 16.3736L55.2067 17.1814L49.8733 11.9305L50.6938 11.1227Z" fill="#FC7370"/>
<path d="M52.0269 16.5836L54.0782 18.6032L42.1806 30.3168L41.1208 27.3211L52.0269 16.5836Z" fill="#4F586B"/>
<path d="M50.7944 15.3719L48.7431 13.3524L36.8456 25.066L39.8884 26.1094L50.7944 15.3719Z" fill="#4F586B"/>
<path d="M35.6135 26.2777L39.5109 27.6914L40.9468 31.5286L32.9468 34.154L35.6135 26.2777Z" fill="#FC7370"/>
<defs>
<linearGradient id="paint0_linear" x1="32.0001" y1="2.89795" x2="32.0001" y2="61.1019" gradientUnits="userSpaceOnUse">
<stop stop-color="#FDFEFE" stop-opacity="0.42"/>
<stop offset="1" stop-color="#F1F6FD"/>
</linearGradient>
<linearGradient id="paint1_linear" x1="32.8276" y1="32.6124" x2="13.0178" y2="20.0223" gradientUnits="userSpaceOnUse">
<stop stop-color="#FFC20A"/>
<stop offset="1" stop-color="#FFEFBE"/>
<stop offset="1" stop-color="#FFFAEC"/>
</linearGradient>
<linearGradient id="paint2_linear" x1="37.2806" y1="17.2496" x2="25.463" y2="-1.72888" gradientUnits="userSpaceOnUse">
<stop stop-color="#FFC20A"/>
<stop offset="1" stop-color="#FFEFBE"/>
<stop offset="1" stop-color="#FFFAEC"/>
</linearGradient>
</defs>
</svg>
