<svg width="64" height="64" viewBox="0 0 64 64" fill="none" xmlns="http://www.w3.org/2000/svg">
<circle cx="31.9998" cy="34.556" r="29.3333" fill="url(#paint0_linear)"/>
<g clip-path="url(#clip0)">
<path d="M42.2696 10.4569L42.9507 9.94613C44.1644 9.0359 44.4104 7.31412 43.5002 6.10043C42.59 4.88676 40.8682 4.64076 39.6545 5.55098L38.9734 6.06178C38.3811 6.50572 37.5795 6.54909 36.9424 6.17176C36.3053 5.79444 35.9584 5.07064 36.0626 4.33789L36.1827 3.49604C36.3971 1.99431 35.3536 0.603091 33.8519 0.388543C32.3499 0.173963 30.9585 1.21766 30.744 2.71962L30.624 3.56044C30.5198 4.29408 29.9838 4.89226 29.2662 5.076C28.5487 5.26019 27.7909 4.99374 27.3465 4.40093L26.8362 3.72031C25.926 2.50642 24.204 2.26034 22.9903 3.17072C21.7769 4.08083 21.5308 5.80217 22.4406 7.0158L22.9514 7.69716C23.3953 8.28997 23.4387 9.09111 23.0614 9.72818C22.6841 10.3653 21.9602 10.7122 21.2275 10.608L20.3854 10.4878C18.8838 10.2734 17.4926 11.3168 17.278 12.8184C17.0633 14.3204 18.107 15.7121 19.6091 15.9264L20.4509 16.0466C21.1841 16.1512 21.7823 16.6872 21.9661 17.4048C22.1498 18.1223 21.8834 18.8801 21.2905 19.3245L20.61 19.835C19.3965 20.7454 19.1506 22.4671 20.0609 23.6807C20.9711 24.8943 22.6928 25.1403 23.9065 24.2302L24.5868 23.72C25.1791 23.2757 25.9812 23.2318 26.6187 23.6092C27.2558 23.9865 27.6031 24.7107 27.4985 25.4439L27.3778 26.2823C27.1613 27.7849 28.2049 29.1782 29.7078 29.3931C31.2085 29.6076 32.5993 28.5658 32.8154 27.0653L32.9371 26.2196C33.0417 25.4864 33.5778 24.8887 34.2953 24.7049C35.0128 24.5207 35.7706 24.7876 36.2146 25.38L36.7258 26.0613C37.6361 27.2744 39.3574 27.5201 40.5707 26.6101C41.7845 25.6997 42.0301 23.9776 41.1194 22.7642L40.6088 22.0838C40.1644 21.4914 40.1206 20.6894 40.4979 20.0519C40.8752 19.4148 41.5995 19.0674 42.3327 19.1725L43.1745 19.2927C44.6762 19.5073 46.0676 18.4639 46.2823 16.9622C46.497 15.4603 45.4534 14.0687 43.9515 13.8541L43.1101 13.7339C42.3774 13.6288 41.7797 13.0933 41.5955 12.3757C41.4117 11.6586 41.6777 10.9013 42.2696 10.4569ZM31.7805 21.2992C28.2407 21.2992 25.3714 18.4299 25.3714 14.89C25.3714 11.3506 28.2407 8.48087 31.7805 8.48087C35.3204 8.48087 38.1897 11.3506 38.1897 14.89C38.1897 18.4299 35.3204 21.2992 31.7805 21.2992Z" fill="url(#paint1_linear)"/>
<path d="M55.063 31.1482L55.5864 30.7556C56.5193 30.056 56.7084 28.7327 56.0088 27.7999C55.3092 26.867 53.9858 26.678 53.053 27.3775L52.5295 27.7701C52.0742 28.1114 51.4581 28.1447 50.9685 27.8547C50.4788 27.5647 50.2122 27.0084 50.2922 26.4452L50.3846 25.7981C50.5494 24.6439 49.7473 23.5746 48.5931 23.4097C47.4387 23.2448 46.3692 24.047 46.2044 25.2014L46.1122 25.8476C46.0321 26.4115 45.6201 26.8713 45.0686 27.0125C44.5171 27.154 43.9347 26.9493 43.5931 26.4936L43.2009 25.9705C42.5013 25.0375 41.1778 24.8484 40.245 25.5481C39.3123 26.2476 39.1232 27.5706 39.8225 28.5034L40.2151 29.0271C40.5563 29.4827 40.5896 30.0985 40.2996 30.5881C40.0096 31.0778 39.4533 31.3444 38.8901 31.2644L38.2428 31.172C37.0887 31.0072 36.0195 31.8091 35.8545 32.9633C35.6895 34.1177 36.4917 35.1873 37.6462 35.3521L38.2932 35.4444C38.8568 35.5248 39.3165 35.9368 39.4577 36.4883C39.599 37.0398 39.3942 37.6222 38.9385 37.9638L38.4155 38.3562C37.4828 39.0559 37.2938 40.3792 37.9934 41.312C38.6931 42.2447 40.0163 42.4338 40.9492 41.7343L41.472 41.3422C41.9273 41.0007 42.5437 40.967 43.0337 41.257C43.5234 41.547 43.7904 42.1037 43.71 42.6672L43.6172 43.3115C43.4508 44.4665 44.2529 45.5373 45.408 45.7025C46.5615 45.8674 47.6304 45.0666 47.7964 43.9134L47.89 43.2634C47.9704 42.6998 48.3824 42.2404 48.9339 42.0992C49.4854 41.9576 50.0679 42.1628 50.4091 42.6181L50.802 43.1417C51.5016 44.0741 52.8246 44.2629 53.7572 43.5635C54.6901 42.8638 54.8789 41.5402 54.1789 40.6075L53.7864 40.0846C53.4449 39.6293 53.4112 39.0129 53.7012 38.5229C53.9912 38.0332 54.5479 37.7662 55.1114 37.847L55.7584 37.9394C56.9126 38.1043 57.9821 37.3024 58.1471 36.1481C58.3121 34.9938 57.51 33.9242 56.3556 33.7593L55.709 33.6669C55.1458 33.5862 54.6864 33.1745 54.5448 32.623C54.4036 32.0719 54.608 31.4898 55.063 31.1482ZM47.0011 39.4815C44.2804 39.4815 42.0751 37.2762 42.0751 34.5555C42.0751 31.8351 44.2804 29.6294 47.0011 29.6294C49.7218 29.6294 51.9271 31.8351 51.9271 34.5555C51.9271 37.2762 49.7218 39.4815 47.0011 39.4815Z" fill="#3FC0AD"/>
<circle opacity="0.7" cx="29.1347" cy="24.9999" r="13.6" fill="url(#paint2_linear)"/>
<path fill-rule="evenodd" clip-rule="evenodd" d="M16.3832 24.9894C16.3832 32.101 22.1384 37.7813 29.1326 37.7813C36.1268 37.7813 41.882 32.101 41.882 24.9894C41.882 17.8778 36.1268 12.1975 29.1326 12.1975C22.1384 12.1975 16.3832 17.8778 16.3832 24.9894ZM20.1683 39.4274C22.7708 41.0447 25.8425 41.9789 29.1326 41.9789C38.521 41.9789 46.1318 34.3724 46.1318 24.9894C46.1318 15.6064 38.521 8 29.1326 8C19.7442 8 12.1334 15.6064 12.1334 24.9894C12.1334 29.6719 14.0287 33.9119 17.0945 36.985L5.33184 52.1726C6.65458 53.7572 9.10469 53.7125 10.3686 52.0806L20.1683 39.4274Z" fill="#FC7370"/>
<rect x="16.6079" y="36.459" width="5.71361" height="2.95559" rx="1" transform="rotate(39.0466 16.6079 36.459)" fill="#4F586B"/>
</g>
<defs>
<linearGradient id="paint0_linear" x1="31.9998" y1="5.22266" x2="31.9998" y2="63.8893" gradientUnits="userSpaceOnUse">
<stop stop-color="#FDFEFE" stop-opacity="0.42"/>
<stop offset="1" stop-color="#F1F6FD"/>
</linearGradient>
<linearGradient id="paint1_linear" x1="44.8097" y1="26.3565" x2="19.8092" y2="5.93607" gradientUnits="userSpaceOnUse">
<stop stop-color="#FFC20A"/>
<stop offset="1" stop-color="#FFEFBE"/>
<stop offset="1" stop-color="#FFFAEC"/>
</linearGradient>
<linearGradient id="paint2_linear" x1="44.3377" y1="33.5414" x2="18.2032" y2="16.8189" gradientUnits="userSpaceOnUse">
<stop stop-color="#9DC8FF"/>
<stop offset="1" stop-color="#B3D0F2" stop-opacity="0.02"/>
</linearGradient>
<clipPath id="clip0">
<rect width="53.3333" height="53.3333" fill="white" transform="translate(5.3335)"/>
</clipPath>
</defs>
</svg>
